#!OML:ASF Y:\EmotionMaleHayes\Project 1\Capture day 1\Session 1\Male1.ASF
:FULLY-SPECIFIED
:DEGREES
1167
root 46.5386 17.1493 -2.81808 -13.2366 84.5188 -9.75594
lowerback 7.82735 2.68193 -12.1483
upperback 5.14874 3.13206 -4.31834
thorax 0.683224 1.48905 2.03155
lowerneck -24.6129 1.43647 0.396322
upperneck 14.5379 0.710157 5.71346
head 8.53268 1.02789 2.00027
rclavicle -1.19271e-014 1.27222e-014
rhumerus -53.9281 8.59834 -92.6211
rradius 53.0026
rwrist -7.08728
rhand -4.65158 -32.618
rfingers 7.12502
rthumb 21.1281 -61.4868
lclavicle -1.19271e-014 1.27222e-014
lhumerus -5.78911 -38.3139 79.8663
lradius 56.0983
lwrist 7.5231
lhand -15.7607 -20.8725
lfingers 7.12502
lthumb 10.431 8.8487
rfemur 4.97895 -5.6496 6.93268
rtibia 13.3728
rfoot -13.5549 -4.41627
rtoes 1.11949
lfemur 6.89086 3.14119 -19.5334
ltibia 10.8776
lfoot -16.0659 10.0685
ltoes 5.09757
1168
root 46.5747 17.1471 -2.78989 -16.6672 84.2282 -12.9419
lowerback 7.68896 2.83744 -11.9061
upperback 5.18171 3.36729 -4.10944
thorax 0.760679 1.59894 2.10549
lowerneck -24.609 1.34405 0.325229
upperneck 14.4844 0.61212 5.70511
head 8.5163 0.975483 1.99407
rclavicle -7.15625e-015 -1.59028e-015
rhumerus -53.9055 8.52876 -92.6413
rradius 53.0704
rwrist -7.06249
rhand -4.81575 -32.5259
rfingers 7.12502
rthumb 20.9704 -61.4122
lclavicle -7.15625e-015 -1.59028e-015
lhumerus -6.23926 -38.5633 80.3373
lradius 56.1833
lwrist 7.51283
lhand -15.4101 -20.7552
lfingers 7.12502
lthumb 10.7692 8.94873
rfemur 5.12925 -4.82366 7.72772
rtibia 12.9362
rfoot -13.4482 -5.37386
rtoes 0.707147
lfemur 7.45121 3.27849 -18.7867
ltibia 10.6413
lfoot -16.0445 10.0831
ltoes 5.22044
1169
root 46.5932 17.1423 -2.78178 -14.3897 84.4311 -10.5332
lowerback 7.61774 2.82649 -12.0799
upperback 5.20713 3.36061 -4.13072
thorax 0.823629 1.58966 2.18218
lowerneck -24.9089 1.33583 0.00101351
upperneck 14.7012 0.620524 6.09171
head 8.63893 1.01291 2.18962
rclavicle -9.54166e-015 -3.81667e-014
rhumerus -53.6965 8.49487 -92.638
rradius 53.1232
rwrist -6.93157
rhand -4.75434 -32.5689
rfingers 7.12502
rthumb 21.0294 -61.4487
lclavicle -9.54166e-015 -3.81667e-014
lhumerus -6.49345 -38.806 80.5626
lradius 56.1671
lwrist 7.65043
lhand -15.2474 -20.7762
lfingers 7.12502
lthumb 10.9262 8.91949
rfemur 5.11005 -4.86927 7.37012
rtibia 13.2684
rfoot -13.9448 -5.2676
rtoes 3.9284
lfemur 7.65199 3.13365 -19.156
ltibia 10.6229
lfoot -16.0431 10.1747
ltoes 4.98853
1170
root 46.6116 17.1366 -2.76841 -11.525 84.644 -7.51003
lowerback 7.83753 2.83947 -12.3763
upperback 5.02702 3.30114 -4.15699
thorax 0.508675 1.57422 2.3042
lowerneck -24.8219 1.30614 -0.0231317
upperneck 14.8234 0.571895 6.15132
head 8.66846 0.996401 2.20816
rclavicle -1.07344e-014 -3.97569e-014
rhumerus -53.8241 8.52113 -92.741
rradius 53.0898
rwrist -6.72041
rhand -4.59363 -32.4486
rfingers 7.12502
rthumb 21.1838 -61.3111
lclavicle -1.07344e-014 -3.97569e-014
lhumerus -7.30057 -39.0862 81.0645
lradius 56.2131
lwrist 7.71578
lhand -15.2275 -20.8216
lfingers 7.12502
lthumb 10.9453 8.87313
rfemur 5.167 -4.69494 7.01726
rtibia 12.9799
rfoot -13.5766 -5.43865
rtoes 2.00124
lfemur 7.85786 2.94264 -19.5495
ltibia 10.6403
lfoot -16.1306 10.2363
ltoes 5.03144
1171
root 46.6322 17.1352 -2.74778 -12.4249 84.4369 -8.20336
lowerback 7.99613 2.97329 -12.3361
upperback 4.86416 3.42536 -4.06382
thorax 0.225851 1.65029 2.3551
lowerneck -24.7041 1.23211 0.0649598
upperneck 14.9142 0.446022 6.11175
head 8.68539 0.938098 2.16228
rclavicle 8.34896e-015 -8.26944e-014
rhumerus -53.9857 8.56492 -92.8631
rradius 53.134
rwrist -6.51689
rhand -4.29779 -32.5321
rfingers 7.12502
rthumb 21.468 -61.3626
lclavicle 8.34896e-015 -8.26944e-014
lhumerus -8.19995 -39.3019 81.6689
lradius 56.2202
lwrist 7.57671
lhand -15.2473 -20.9312
lfingers 7.12502
lthumb 10.9262 8.76449
rfemur 5.18661 -4.08799 7.38863
rtibia 13.0907
rfoot -14.1917 -5.77089
rtoes 3.63726
lfemur 8.24543 2.8987 -19.2603
ltibia 10.4968
lfoot -16.2436 10.381
ltoes 5.23247
1172
root 46.6763 17.1315 -2.76164 -1.97753 84.9866 2.24499
lowerback 7.29992 2.80769 -12.9602
upperback 5.1043 3.34042 -4.33771
thorax 0.876811 1.56802 2.45583
lowerneck -25.0282 1.18054 0.0887834
upperneck 14.9299 0.347638 6.18089
head 8.74892 0.907093 2.17391
rclavicle -9.54166e-015 6.36111e-015
rhumerus -53.5182 8.45731 -92.7603
rradius 53.2514
rwrist -6.27239
rhand -4.21482 -32.6349
rfingers 7.12502
rthumb 21.5477 -61.4562
lclavicle -9.54166e-015 6.36111e-015
lhumerus -8.26986 -39.4718 81.7705
lradius 56.1295
lwrist 7.55615
lhand -15.2096 -20.9563
lfingers 7.12502
lthumb 10.9626 8.73744
rfemur 5.38859 -5.3811 5.61595
rtibia 12.8877
rfoot -13.7216 -4.63849
rtoes 6.58859
lfemur 8.49774 2.80953 -20.7874
ltibia 10.221
lfoot -16.183 10.1307
ltoes 4.85375
1173
root 46.7049 17.1298 -2.75002 -2.98818 85.1738 1.30404
lowerback 7.19631 2.80096 -12.7378
upperback 5.07486 3.35349 -4.29706
thorax 0.905438 1.57643 2.38186
lowerneck -25.2714 1.09577 0.00651721
upperneck 15.147 0.207833 6.36742
head 8.87047 0.866656 2.23994
rclavicle -1.07344e-014 -1.00187e-013
rhumerus -53.4117 8.51372 -92.8738
rradius 53.0911
rwrist -6.26733
rhand -4.67585 -32.2194
rfingers 7.12502
rthumb 21.1048 -61.0908
lclavicle -1.07344e-014 -1.00187e-013
lhumerus -8.77751 -39.8777 82.1009
lradius 56.1016
lwrist 7.76265
lhand -15.0308 -20.8415
lfingers 7.12502
lthumb 11.135 8.84307
rfemur 5.4683 -5.57604 5.72865
rtibia 12.9988
rfoot -13.8847 -4.65024
rtoes 6.37857
lfemur 8.75037 2.77816 -20.6553
ltibia 10.0995
lfoot -16.1007 9.98041
ltoes 4.51425
1174
root 46.7299 17.1279 -2.72161 -2.11378 85.0931 2.3443
lowerback 7.30485 2.93776 -12.8782
upperback 4.89753 3.48004 -4.26483
thorax 0.631015 1.65288 2.46972
lowerneck -25.0802 1.02482 -0.0177005
upperneck 15.1562 0.115091 6.40519
head 8.8455 0.823664 2.24084
rclavicle -5.96354e-015 6.20208e-014
rhumerus -53.5863 8.39808 -92.9464
rradius 53.1253
rwrist -5.98763
rhand -4.81024 -31.9638
rfingers 7.12502
rthumb 20.9757 -60.8496
lclavicle -5.96354e-015 6.20208e-014
lhumerus -9.72362 -40.2119 82.7238
lradius 56.0763
lwrist 7.7685
lhand -14.9071 -20.7891
lfingers 7.12502
lthumb 11.2544 8.88899
rfemur 5.52118 -4.79636 5.96415
rtibia 12.877
rfoot -14.0769 -5.33101
rtoes 6.26101
lfemur 9.05826 2.77534 -20.5357
ltibia 10.0163
lfoot -16.1096 10.0094
ltoes 4.68698
1175
root 46.7508 17.1238 -2.70866 -6.65284 85.0529 -2.09294
lowerback 7.4736 2.96192 -12.4074
upperback 4.64842 3.46294 -4.12709
thorax 0.2808 1.6697 2.34497
lowerneck -24.5987 1.0395 0.148701
upperneck 14.9972 0.119152 6.29126
head 8.71019 0.812414 2.16478
rclavicle -1.82882e-014 -3.49861e-014
rhumerus -53.888 8.47621 -93.0745
rradius 53.2224
rwrist -5.66844
rhand -4.67848 -31.9466
rfingers 7.12502
rthumb 21.1023 -60.8183
lclavicle -1.82882e-014 -3.49861e-014
lhumerus -10.8918 -40.2966 83.4355
lradius 56.031
lwrist 7.5844
lhand -14.9511 -20.7307
lfingers 7.12502
lthumb 11.2119 8.94968
rfemur 5.49522 -4.63589 6.54036
rtibia 12.8395
rfoot -13.814 -5.7422
rtoes 5.55684
lfemur 9.36124 2.6801 -20.022
ltibia 9.87596
lfoot -16.1827 9.97793
ltoes 5.31384
1176
root 46.7728 17.1169 -2.69691 2.87286 85.1116 7.67198
lowerback 7.03955 2.95557 -13.1726
upperback 4.96381 3.54684 -4.28458
thorax 0.831036 1.66922 2.6177
lowerneck -24.7057 1.06031 0.404057
upperneck 14.7292 0.107758 6.11738
head 8.63635 0.799408 2.05876
rclavicle 9.93923e-015 -9.54166e-015
rhumerus -53.3052 8.61608 -93.0335
rradius 53.2207
rwrist -5.39026
rhand -4.63335 -32.0368
rfingers 7.12502
rthumb 21.1457 -60.9037
lclavicle 9.93923e-015 -9.54166e-015
lhumerus -10.8991 -40.3414 83.4325
lradius 55.9212
lwrist 7.62593
lhand -15.0247 -20.6091
lfingers 7.12502
lthumb 11.1409 9.07513
rfemur 5.59099 -4.89265 5.46223
rtibia 13.2418
rfoot -13.7265 -5.66171
rtoes 4.54667
lfemur 9.71536 2.59174 -21.0424
ltibia 9.73947
lfoot -16.3106 9.99312
ltoes 5.76453
1177
root 46.8 17.1143 -2.68949 8.14375 85.2728 13.0105
lowerback 7.07596 2.9369 -13.4534
upperback 4.80461 3.48081 -4.33546
thorax 0.642756 1.64645 2.71443
lowerneck -24.9965 0.959018 0.0256472
upperneck 15.2493 -0.0309248 6.60272
head 8.87132 0.783205 2.28228
rclavicle -1.63003e-014 7.95139e-014
rhumerus -53.4217 8.64272 -93.0166
rradius 53.2538
rwrist -5.22169
rhand -4.65703 -32.0678
rfingers 7.12502
rthumb 21.1229 -60.9372
lclavicle -1.63003e-014 7.95139e-014
lhumerus -11.8923 -40.4977 84.1208
lradius 55.8126
lwrist 7.65823
lhand -15.0608 -20.473
lfingers 7.12502
lthumb 11.1061 9.21315
rfemur 5.6995 -4.87955 4.89982
rtibia 12.9699
rfoot -13.751 -5.46379
rtoes 8.92956
lfemur 9.91566 2.52061 -21.61
ltibia 9.62425
lfoot -16.3074 10.0381
ltoes 5.11036
1178
root 46.8232 17.1138 -2.66193 0.779093 85.2626 5.72578
lowerback 7.14879 3.00238 -12.876
upperback 4.6283 3.54389 -4.12107
thorax 0.410364 1.69572 2.61329
lowerneck -25.0634 0.912749 -0.160623
upperneck 15.5152 -0.106525 6.90829
head 8.97958 0.779492 2.41449
rclavicle -7.15625e-015 4.45278e-014
rhumerus -53.5071 8.73327 -93.1094
rradius 53.1894
rwrist -5.27531
rhand -4.73053 -31.8466
rfingers 7.12502
rthumb 21.0523 -60.7239
lclavicle -7.15625e-015 4.45278e-014
lhumerus -12.8715 -40.7723 84.7042
lradius 55.6495
lwrist 7.78149
lhand -15.0568 -20.2567
lfingers 7.12502
lthumb 11.11 9.42924
rfemur 5.65085 -4.38424 5.96575
rtibia 13.1626
rfoot -14.1914 -6.16241
rtoes 6.88338
lfemur 10.1824 2.49865 -20.6787
ltibia 9.50199
lfoot -16.1904 10.2383
ltoes 3.77453
1179
root 46.8344 17.1121 -2.63126 -3.16347 85.1182 1.87166
lowerback 7.03392 3.08335 -12.6632
upperback 4.62905 3.67204 -3.94966
thorax 0.453469 1.75458 2.67254
lowerneck -25.0002 0.879668 -0.0571109
upperneck 15.373 -0.158359 6.81022
head 8.92142 0.746378 2.35218
rclavicle 1.35174e-014 2.22639e-014
rhumerus -53.2808 8.84033 -93.1269
rradius 53.124
rwrist -5.2659
rhand -4.76879 -31.608
rfingers 7.12502
rthumb 21.0155 -60.4893
lclavicle 1.35174e-014 2.22639e-014
lhumerus -13.46 -40.9177 85.0464
lradius 55.4892
lwrist 8.13833
lhand -15.0001 -20.1331
lfingers 7.12502
lthumb 11.1646 9.54986
rfemur 5.49546 -3.63028 6.75226
rtibia 13.3799
rfoot -14.5346 -6.75265
rtoes 5.5419
lfemur 10.3626 2.46761 -20.0529
ltibia 9.43872
lfoot -16.1687 10.4288
ltoes 3.09319
1180
root 46.8604 17.1053 -2.61902 4.25036 85.2451 9.38886
lowerback 6.81453 3.08569 -13.1575
upperback 4.66505 3.70036 -4.05991
thorax 0.597929 1.75547 2.83447
lowerneck -24.8888 0.866581 0.223125
upperneck 15.1681 -0.181161 6.41463
head 8.83041 0.699807 2.1602
rclavicle 6.75868e-015 -6.36111e-014
rhumerus -53.0968 8.72598 -92.9999
rradius 53.1304
rwrist -4.91341
rhand -4.60785 -31.5407
rfingers 7.12502
rthumb 21.1702 -60.4048
lclavicle 6.75868e-015 -6.36111e-014
lhumerus -14.1507 -41.0221 85.4996
lradius 55.3698
lwrist 8.43489
lhand -14.9038 -20.0231
lfingers 7.12502
lthumb 11.2575 9.65479
rfemur 5.63544 -3.79087 5.96258
rtibia 13.35
rfoot -14.3767 -6.55343
rtoes 6.10414
lfemur 10.6138 2.45702 -20.7884
ltibia 9.27363
lfoot -16.1808 10.3222
ltoes 3.45435
